<?xml version="1.0" encoding="UTF-8" standalone="no"?>
<!-- Created with Inkscape (http://www.inkscape.org/) -->

<svg
   version="1.1"
   id="svg1"
   width="1516"
   height="3125"
   viewBox="0 0 1516.0005 3125.001"
   sodipodi:docname="iq_2.png"
   xmlns:inkscape="http://www.inkscape.org/namespaces/inkscape"
   xmlns:sodipodi="http://sodipodi.sourceforge.net/DTD/sodipodi-0.dtd"
   xmlns="http://www.w3.org/2000/svg"
   xmlns:svg="http://www.w3.org/2000/svg">
  <defs
     id="defs1" />
  <sodipodi:namedview
     id="namedview1"
     pagecolor="#505050"
     bordercolor="#eeeeee"
     borderopacity="1"
     inkscape:showpageshadow="0"
     inkscape:pageopacity="0"
     inkscape:pagecheckerboard="0"
     inkscape:deskcolor="#505050"
     inkscape:export-bgcolor="#ffffff00" />
  <g
     inkscape:groupmode="layer"
     inkscape:label="Image"
     id="g1">
    <g
       id="g2"
       transform="translate(0,-0.09482777)">
      <path
         style="fill:#e7ecf3"
         d="m 1020.405,866.75 -1.905,-2.25 2.25,1.90499 c 2.1144,1.79022 2.7052,2.59501 1.905,2.59501 -0.1898,0 -1.2023,-1.0125 -2.25,-2.25 z"
         id="path15" />
      <path
         style="fill:#dce6f3"
         d="m 621.87244,3092.25 -1.37244,-1.75 1.75,1.3724 c 0.9625,0.7549 1.75,1.5424 1.75,1.75 0,0.8231 -0.82119,0.2933 -2.12756,-1.3724 z"
         id="path14" />
      <path
         style="fill:#d9e3f2"
         d="m 703.49831,1949.5 c 0,-646.8 0.11326,-911.2503 0.25169,-587.6673 0.13843,323.583 0.13843,852.783 0,1176 -0.13843,323.217 -0.25169,58.4673 -0.25169,-588.3327 z"
         id="path13" />
      <path
         style="fill:#d8e2f1"
         d="m 591.49295,2752 c 0,-153.175 0.11566,-215.8375 0.25702,-139.25 0.14136,76.5875 0.14136,201.9125 0,278.5 -0.14136,76.5875 -0.25702,13.925 -0.25702,-139.25 z m 0.004,-1191.5 c 0,-332.2 0.11397,-467.9506 0.25328,-301.6679 0.1393,166.2827 0.1393,438.0827 -10e-6,604 -0.1393,165.9173 -0.25327,29.8679 -0.25327,-302.3321 z"
         id="path12" />
      <path
         style="fill:#d1d7e9"
         d="m 812.49831,1175.5 c 0,-646.8 0.11326,-911.25029 0.25169,-587.6673 0.13843,323.58298 0.13843,852.783 0,1176 -0.13843,323.217 -0.25169,58.4673 -0.25169,-588.3327 z"
         id="path11" />
      <path
         style="fill:#ced7e8"
         d="m 924.49672,1564.5 c 0,-332.2 0.11397,-467.9506 0.25328,-301.6679 0.1393,166.2827 0.1393,438.0827 -10e-6,604 -0.1393,165.9173 -0.25327,29.8679 -0.25327,-302.3321 z M 924.49295,373 c 0,-153.175 0.11566,-215.8375 0.25702,-139.25 0.14136,76.5875 0.14136,201.9125 0,278.5 -0.14136,76.5875 -0.25702,13.925 -0.25702,-139.25 z"
         id="path10" />
      <path
         style="fill:#b5c8e6"
         d="m 111.49435,1560.5 c 1e-5,-191.95 0.11504,-270.326 0.25564,-174.1688 0.14059,96.1572 0.14059,253.2072 -1e-5,349 -0.1406,95.7928 -0.25563,17.1188 -0.25563,-174.8312 z"
         id="path9" />
      <path
         style="fill:#a1b0d3"
         d="m 1404.4944,1564.5 c 0,-191.95 0.115,-270.326 0.2556,-174.1688 0.1406,96.1572 0.1406,253.2072 0,349 -0.1406,95.7928 -0.2557,17.1188 -0.2556,-174.8312 z"
         id="path8" />
      <path
         style="fill:#6a92ce"
         d="m 495.92431,2258.25 -2.42431,-2.75 2.75,2.4243 c 1.5125,1.3334 2.75,2.5709 2.75,2.75 0,0.7843 -0.8098,0.146 -3.07569,-2.4243 z"
         id="path7" />
      <path
         style="fill:#5986c8"
         d="m 622.40499,3091.75 -1.90499,-2.25 2.25,1.905 c 2.11444,1.7902 2.70524,2.595 1.90499,2.595 -0.18976,0 -1.20226,-1.0125 -2.25,-2.25 z"
         id="path6" />
      <path
         style="fill:#4d7dc4"
         d="m 696,3124.3379 c -27.18313,-1.8888 -51.03533,-12.1357 -70.24129,-30.1755 l -7.09311,-6.6624 -5.89046,-7.9144 -5.89046,-7.9143 -4.39559,-9.0857 -4.39558,-9.0856 -2.79676,-9 -2.79675,-9 -0.5158,-287 -0.5158,-287 -2.75201,-15 c -5.79188,-31.569 -13.98926,-60.7383 -23.72566,-84.4245 -27.64689,-67.2579 -73.79994,-119.7496 -140.49073,-159.7858 -11.37244,-6.8272 -5.88575,-3.9406 -245.75,-129.2909 L 0,1979.5861 0.04054421,1560.543 0.08108842,1141.5 350.89138,958.25 C 543.83704,857.4625 701.99379,775 702.35083,775 H 703 v 1175 1175 l -1.25,-0.1747 c -0.6875,-0.096 -3.275,-0.3154 -5.75,-0.4874 z M 591.55436,956.22103 c -0.246,-0.24601 -108.35887,56.90727 -240.25082,127.00727 L 111.5,1210.6829 111.26378,1560.5914 111.02755,1910.5 351.26378,2038.1358 591.5,2165.7717 591.75082,1561.22 c 0.13795,-332.5034 0.0496,-604.75297 -0.19646,-604.99897 z"
         id="path5" />
      <path
         style="fill:#4260a6"
         d="m 1020.405,867.75 -1.905,-2.25 2.25,1.90499 c 2.1144,1.79022 2.7052,2.59501 1.905,2.59501 -0.1898,0 -1.2023,-1.0125 -2.25,-2.25 z"
         id="path4" />
      <path
         style="fill:#405fa6"
         d="m 1016.8724,864.25 -1.3724,-1.75 1.75,1.37244 c 1.6657,1.30637 2.1955,2.12756 1.3724,2.12756 -0.2076,0 -0.9951,-0.7875 -1.75,-1.75 z"
         id="path3" />
      <path
         style="fill:#204497"
         d="M 813,1175.0948 V 0.18965554 l 6.25,0.46761536 c 23.33784,1.7461014 41.09656,7.8583182 59.20665,20.3778141 l 7.43684,5.14108 7.82119,8.161918 7.8212,8.161917 4.77041,7.192165 c 5.9358,8.949191 10.78163,19.346772 14.40451,30.907448 L 923.5,89.5 l 0.5158,287 0.5158,287 2.75893,15 c 1.51742,8.25 4.77342,23.18044 7.23557,33.17877 l 4.47664,18.17876 4.62622,13.32124 c 6.03056,17.36506 12.90627,33.33804 21.01554,48.82123 l 6.54683,12.5 9.25067,14 c 5.08787,7.7 13.01905,18.725 17.62484,24.5 l 8.37416,10.5 14.5295,14.50988 14.5295,14.50987 9.5,7.64106 c 14.1841,11.40853 29.9071,22.40135 45.0438,31.49245 l 13.5215,8.12102 206.2174,107.78672 206.2173,107.7867 -0.033,419.0761 -0.032,419.0762 -350.7552,183.25 C 972.26453,2267.5375 814.10414,2350 813.71235,2350 H 813 Z m 352,866.5492 239.5,-127.3105 0.2356,-349.9168 L 1404.9713,1214.5 1176.3065,1093 C 1050.5409,1026.175 942.32232,968.67317 935.82085,965.21815 L 924,958.9363 V 1563.9682 2169 l 0.75,-0.023 c 0.4125,-0.012 108.525,-57.3125 240.25,-127.3332 z"
         id="path2" />
    </g>
  </g>
</svg>
