<?xml version="1.0" encoding="UTF-8" standalone="no"?>
<svg
   viewBox="0 0 448 448"
   version="1.1"
   id="svg1"
   sodipodi:docname="phone-square.svg"
   width="448"
   height="448"
   xmlns:inkscape="http://www.inkscape.org/namespaces/inkscape"
   xmlns:sodipodi="http://sodipodi.sourceforge.net/DTD/sodipodi-0.dtd"
   xmlns="http://www.w3.org/2000/svg"
   xmlns:svg="http://www.w3.org/2000/svg">
  <defs
     id="defs1" />
  <sodipodi:namedview
     id="namedview1"
     pagecolor="#ffffff"
     bordercolor="#999999"
     borderopacity="1"
     inkscape:showpageshadow="2"
     inkscape:pageopacity="0"
     inkscape:pagecheckerboard="0"
     inkscape:deskcolor="#d1d1d1" />
  <!-- Font Awesome Free 5.15.4 by @fontawesome - https://fontawesome.com License - https://fontawesome.com/license/free (Icons: CC BY 4.0, Fonts: SIL OFL 1.1, Code: MIT License) -->
  <path
     d="M 400,0 H 48 C 21.49,0 0,21.49 0,48 v 352 c 0,26.51 21.49,48 48,48 h 352 c 26.51,0 48,-21.49 48,-48 V 48 C 448,21.49 426.51,0 400,0 Z M 94,384 c -7.033,0 -13.057,-4.873 -14.616,-11.627 l -14.998,-65 a 15,15 0 0 1 8.707,-17.16 l 69.998,-29.999 a 15,15 0 0 1 17.518,4.289 l 30.997,37.885 c 48.944,-22.963 88.297,-62.858 110.781,-110.78 l -37.886,-30.997 a 15.001,15.001 0 0 1 -4.289,-17.518 l 30,-69.998 a 15,15 0 0 1 17.16,-8.707 l 65,14.998 A 14.997,14.997 0 0 1 384,94 C 384,254.292 254.055,384 94,384 Z"
     id="path1"
     style="fill:#01a982;fill-opacity:1" />
</svg>
