<?xml version="1.0" encoding="UTF-8" standalone="no"?>
<!-- Created with Inkscape (http://www.inkscape.org/) -->

<svg
   version="1.1"
   id="svg1"
   width="1131.9808"
   height="957.86646"
   viewBox="0 0 1131.9808 957.86646"
   sodipodi:docname="redoxoma3.svg"
   inkscape:export-filename="redoxomag2.svg"
   inkscape:export-xdpi="96"
   inkscape:export-ydpi="96"
   xmlns:inkscape="http://www.inkscape.org/namespaces/inkscape"
   xmlns:sodipodi="http://sodipodi.sourceforge.net/DTD/sodipodi-0.dtd"
   xmlns="http://www.w3.org/2000/svg"
   xmlns:svg="http://www.w3.org/2000/svg">
  <defs
     id="defs1" />
  <sodipodi:namedview
     id="namedview1"
     pagecolor="#505050"
     bordercolor="#eeeeee"
     borderopacity="1"
     inkscape:showpageshadow="0"
     inkscape:pageopacity="0"
     inkscape:pagecheckerboard="0"
     inkscape:deskcolor="#505050" />
  <g
     inkscape:groupmode="layer"
     inkscape:label="Image"
     id="g1"
     transform="translate(-0.30817302,-1.0667761)">
    <path
       style="fill:#666666;fill-opacity:1;stroke:#666666;stroke-width:54.4;stroke-dasharray:none;stroke-opacity:1"
       d="m 176.73963,429.51783 h -1 c -7.12627,-9.2416 -19.44315,-11.3488 -27.97614,-2.3236 -9.43966,9.9841 -16.26097,28.5224 -21.02386,41.3236 -13.03731,-10.5035 -31.166518,-19.9453 -38.999998,2 -12.38925,-9.2032 -37.94418,-38.1627 -49.67649,-10.9853 -1.37141,3.1768 -1.85023,6.5885 -2.32351,9.9853 -4.61867,-4.2067 -9.505318,-8.6806 -16.000218,-9.3953 -11.7476041,-1.2928 -21.7150901,9.8851 -18.97265913,21.3953 2.14484603,9.002 10.73065513,15.7523 16.97347413,22 10.766613,10.7752 33.976263,35.8565 45.699953,10.9245 1.75869,-3.7401 2.47167,-7.9065 3.29945,-11.9245 12.7026,11.6355 36.362748,31.9835 45.999998,5 18.69809,13.9583 32.86113,8.811 41,-13 h 1 c 1.22864,11.2248 2.70578,27.1697 8.72849,36.8937 4.11271,6.6402 13.02851,8.3713 15.17898,16.2431 9.42511,34.501 13.66155,69.0915 26.72369,102.8632 40.637,105.0656 117.23136,194.8632 216.36884,249.0659 53.15182,29.0604 111.76758,48.5436 172,55.6961 16.01788,1.9021 56.37054,12.0281 59.18134,-12.7646 2.26391,-19.9691 -20.57599,-20.1326 -34.18134,-21.1364 -46.75098,-3.4493 -92.74939,-14.9603 -136,-32.909 -117.90164,-48.9285 -210.24261,-150.0854 -250.33075,-270.952 -8.30751,-25.0474 -14.18619,-50.8658 -17.80189,-77 -2.51786,-18.199 -4.59519,-32.3402 4.13264,-49 h 1 c 8.99086,14.8214 20.8777,28.4989 31.79333,41.9493 5.34339,6.5842 12.0163,12.8593 21.20389,11.2295 8.63687,-1.5322 13.38309,-8.6641 16.56699,-16.1801 5.81976,-13.7383 12.1568,-27.6969 16.43579,-41.9987 12.3627,10.567 33.43799,40.4761 51.98206,35.4786 17.91476,-4.8278 18.70303,-38.5324 22.01825,-53.4786 12.36605,-55.7509 27.67877,-111.66473 36.99969,-168 h 1 c 0.34534,34.9187 4.39978,70.15851 6.77249,105 3.65341,53.6479 6.43244,107.392 10.60434,161 1.6023,20.589 1.73627,41.5043 4.24671,61.9999 1.1083,9.0484 5.55841,17.5589 15.37942,19.2554 22.36121,3.8627 25.04269,-30.4473 28.85495,-45.2553 13.87476,-53.8943 28.83392,-107.7271 41.14209,-162 h 1 c 2.13873,32.0347 7.70471,64.1417 11.68762,96 l 22.24994,179 c 2.66522,21.3303 5.11884,42.7 8.01599,64 1.28394,9.4394 4.48316,19.1884 15.0636,21.3156 8.8952,1.7883 17.07922,-2.9919 20.41473,-11.3362 6.28016,-15.7106 5.90265,-36.284 8.28272,-52.9794 7.36243,-51.6453 14.83685,-103.2922 21.74451,-155 3.15112,-23.588 7.91827,-47.2472 9.54089,-71 16.24854,10.7366 28.25946,3.8568 41,-9 h 1 c 12.51556,15.1404 34.16052,36.4717 48.61334,10.9714 2.53449,-4.4718 4.59668,-9.1609 6.38666,-13.9714 9.56866,11.4292 21.31262,32.3706 38.99841,22.7407 5.14356,-2.8006 9.4701,-7.0807 14.00159,-10.7407 2.36572,13.6495 13.15869,29.5813 28.93054,20.2952 6.82605,-4.019 11.38916,-11.5159 15.06946,-18.2952 h 2 c 6.54834,11.0434 18.80219,16.856 29.64587,7.3146 13.49366,-11.8732 26.4087,-34.2631 34.35413,-50.3146 13.05194,6.8858 25.4361,15.1124 37.99997,22.8413 11.1878,6.8822 24.7511,18.8077 38,20.7971 11.2522,1.6897 21.7836,-8.1614 20.3025,-19.6297 -1.3678,-10.5898 -12.1802,-15.9171 -20.3027,-20.9344 -18.9795,-11.7237 -37.983,-23.4109 -56.99977,-35.0742 -7.89594,-4.8427 -17.10596,-12.2425 -26.99512,-9.9512 -15.67895,3.6327 -28.79229,30.8851 -36.00488,43.9511 h -1 c -11.83948,-19.6789 -27.46301,-9.3322 -39,4 -0.75781,-2.839 -1.5661,-5.4693 -3.30969,-7.8901 -13.86023,-19.2429 -33.00159,2.5061 -44.69031,11.8901 -8.4845,-13.9749 -28.8399,-45.6476 -47.28076,-26.5061 -5.99921,6.2271 -9.19177,15.7347 -12.71924,23.5061 -3.45593,-3.4965 -6.78967,-7.1881 -10.47119,-10.4503 -14.91718,-13.218 -26.94422,-0.1223 -40.52881,7.4503 -8.27911,-13.9868 -32.98712,-40.8804 -44.93854,-13.9641 -7.25238,16.3334 -6.54596,39.3444 -9.06152,56.9641 -6.03803,42.2914 -10.90198,84.8746 -17.99994,127 h -1 c -1.00275,-28.5988 -6.51477,-57.6072 -10.06244,-86 l -19.62518,-157 c -2.29181,-18.33154 -4.43183,-36.68951 -6.88617,-55 -1.23914,-9.24451 -4.36133,-18.36292 -14.44354,-20.96204 -22.20014,-5.72308 -25.12006,25.64923 -28.90732,39.96204 -13.09027,49.4705 -28.77466,99.688 -38.07535,150 h -1 c -0.90863,-91.8734 -13.08859,-184.24121 -18.05066,-276 -1.19116,-22.0271 -1.25101,-45.21069 -4.64923,-66.99976 -1.35367,-8.6795 -7.00562,-16.53027 -16.30136,-17.48449 -8.63162,-0.88605 -15.84873,4.64178 -18.79706,12.50439 -6.91238,18.4339 -9.26544,39.76715 -13.53522,58.97986 -17.98599,80.93176 -40.1347,162.21515 -53.66647,244 -11.595,-9.184 -24.25446,-27.6014 -39,-31.142 -22.91791,-5.503 -33.70914,36.841 -38,53.142 -13.35001,-15.568 -30.21017,-52.0195 -54,-49 10.21814,-79.74963 33.82567,-154.02808 81.22421,-220 31.0354,-43.19678 69.74689,-80.75867 113.77579,-110.58716 139.19885,-94.303719 325.10657,-99.371959 470,-14.760869 94.75337,55.331609 167.46667,146.510259 199.91807,251.348029 7.168,23.15668 12.584,46.9606 15.7537,71 1.7834,13.5253 0.8653,28.8859 4.3865,41.9942 4.1546,15.4658 25.8992,19.2662 33.1401,3.9191 4.431,-9.3916 1.4023,-22.9588 0.5141,-32.9133 -2.498,-27.9983 -7.9117,-55.97015 -15.5741,-83 C 1080.4026,227.90174 998.6346,124.24665 888.73963,61.809141 696.43061,-47.452399 448.17545,-5.400269 299.0575,156.51783 c -36.35889,39.47992 -65.69986,85.664 -86.7422,135 -18.57982,43.56232 -31.45268,90.73303 -35.57567,138"
       id="path1"
       sodipodi:nodetypes="ccsccscsscsccccssssssssssccssscssccsssssccccssssscccscscsccscsssssscccccscscssccccsssccssssscsccssssssssssssc" />
  </g>
</svg>
