<?xml version="1.0" encoding="UTF-8" standalone="no"?>
<svg
   viewBox="0 0 22.174141 24.000351"
   version="1.1"
   id="svg1"
   sodipodi:docname="researchgate(1).svg"
   inkscape:export-filename="../Pictures/icons/researchgateg2.svg"
   inkscape:export-xdpi="96"
   inkscape:export-ydpi="96"
   width="22.174141"
   height="24.000351"
   xmlns:inkscape="http://www.inkscape.org/namespaces/inkscape"
   xmlns:sodipodi="http://sodipodi.sourceforge.net/DTD/sodipodi-0.dtd"
   xmlns="http://www.w3.org/2000/svg"
   xmlns:svg="http://www.w3.org/2000/svg">
  <defs
     id="defs1" />
  <sodipodi:namedview
     id="namedview1"
     pagecolor="#505050"
     bordercolor="#eeeeee"
     borderopacity="1"
     inkscape:showpageshadow="0"
     inkscape:pageopacity="0"
     inkscape:pagecheckerboard="0"
     inkscape:deskcolor="#505050" />
  <path
     d="m 18.673,3.5095192e-4 c -0.818,0 -1.508,0.18999999808 -2.073,0.56499999808 -0.563,0.377 -0.97,0.93600005 -1.213,1.68000005 a 3.193,3.193 0 0 0 -0.112,0.437 8.365,8.365 0 0 0 -0.078,0.53 9,9 0 0 0 -0.05,0.727 c -0.01,0.282 -0.013,0.621 -0.013,1.016 a 31.121,31.123 0 0 0 0.014,1.017 9,9 0 0 0 0.05,0.727 7.946,7.946 0 0 0 0.077,0.53 H 15.27 a 3.334,3.334 0 0 0 0.113,0.438 c 0.245,0.743 0.65,1.303 1.214,1.68 0.565,0.376 1.256,0.564 2.075,0.564 0.8,0 1.536,-0.213 2.105,-0.603 0.57,-0.39 0.94,-0.916 1.175,-1.65 0.076,-0.235 0.135,-0.558 0.177,-0.93 a 10.9,10.9 0 0 0 0.043,-1.207 v -0.82 c 0,-0.095 -0.047,-0.142 -0.14,-0.142 h -3.064 c -0.094,0 -0.14,0.047 -0.14,0.141 v 0.956 c 0,0.094 0.046,0.14 0.14,0.14 h 1.666 c 0.056,0 0.084,0.03 0.084,0.086 0,0.36 0,0.62 -0.036,0.865 -0.038,0.244 -0.1,0.447 -0.147,0.606 -0.108,0.385 -0.348,0.664 -0.638,0.876 -0.29,0.212 -0.738,0.35 -1.227,0.35 -0.545,0 -0.901,-0.15 -1.21,-0.353 -0.306,-0.203 -0.517,-0.454 -0.67,-0.915 a 3.136,3.136 0 0 1 -0.147,-0.762 17.366,17.367 0 0 1 -0.034,-0.656 c -0.01,-0.26 -0.014,-0.572 -0.014,-0.939 a 26.401,26.403 0 0 1 0.014,-0.938 15.821,15.822 0 0 1 0.035,-0.656 3.19,3.19 0 0 1 0.148,-0.76 1.89,1.89 0 0 1 0.742,-1.01 c 0.344,-0.244 0.593,-0.352 1.137,-0.352 0.508,0 0.815,0.096 1.144,0.303 0.33,0.207 0.528,0.492 0.764,0.925 0.047,0.094 0.111,0.118 0.198,0.07 l 1.044,-0.43 c 0.075,-0.048 0.09,-0.115 0.042,-0.199 a 3.549,3.549 0 0 0 -0.466,-0.742 3,3 0 0 0 -0.679,-0.60700005 3.313,3.313 0 0 0 -0.903,-0.41 A 4.068,4.068 0 0 0 18.673,3.5095192e-4 Z M 7.304,5.836351 c -1.69,0 -3.036,0.086 -4.297,0.086 -1.146,0 -2.291,0 -3.007,-0.029 v 0.831 l 1.088,0.2 c 0.744,0.144 1.174,0.488 1.174,2.264 v 11.288 c 0,1.777 -0.43,2.12 -1.174,2.263 l -1.088,0.2 v 0.832 c 0.773,-0.029 2.12,-0.086 3.465,-0.086 1.29,0 2.951,0.057 3.667,0.086 v -0.831 l -1.49,-0.2 c -0.773,-0.115 -1.174,-0.487 -1.174,-2.264 v -4.784 c 0.688,0.057 1.29,0.057 2.206,0.057 1.748,3.123 3.41,5.472 4.355,6.56 0.86,1.032 2.177,1.691 3.839,1.691 0.487,0 1.003,-0.086 1.318,-0.23 v -0.744 c -1.031,0 -2.063,-0.716 -2.808,-1.518 -1.26,-1.376 -2.95,-3.582 -4.355,-6.074 2.32,-0.545 4.04,-2.722 4.04,-4.9 0,-3.208 -2.492,-4.698 -5.758,-4.698 z m -0.515,1.29 c 2.406,0 3.839,1.26 3.839,3.552 0,2.263 -1.547,3.782 -4.097,3.782 -0.974,0 -1.404,-0.03 -2.063,-0.086 v -7.19 c 0.66,-0.059 1.547,-0.059 2.32,-0.059 z"
     id="path1"
     style="fill:#666666;fill-opacity:1" />
</svg>
